name dummy_motion_9_GC.mot
datacolumns 40
datarows 8
range 0.00000000 0.07000000
endheader
time	pelvis_rz	pelvis_rx	pelvis_ry	pelvis_tx	pelvis_ty	pelvis_tz	hip_flexion	hip_adduction	hip_rotation	knee_adduction	knee_rotation	knee_flexion	knee_tx	knee_ty	knee_tz	ankle_angle	subtalar_angle	hip_flexion_l	hip_adduction_l	hip_rotation_l	knee_adduction_l	knee_rotation_l	knee_flexion_l	knee_tx_l	knee_ty_l	knee_tz_l	ankle_angle_l	subtalar_angle_l	lumbar_extension	lumbar_bending	lumbar_rotation	arm_flex_r	arm_add_r	arm_rot_r	elbow_flex_r	arm_flex_l	arm_add_l	arm_rot_l	elbow_flex_l	
          0.00000000	          0.00000000	          0.00000000	          0.00000000	          0.00000000	          0.00000000	          0.00000000	         17.28338962	          8.54843244	          3.72501375	          2.86841172	          3.97768629	        -40.94991692	         -0.00258709	          0.05982679	          0.00153627	         17.09479114	          8.02240406	         24.43235506	         -8.63543234	          8.73436355	          0.00000000	          0.00000000	        -24.34219883	          0.00000000	          0.04200000	          0.00000000	         -0.98836773	         13.42417796	        -11.79491759	         -1.04317437	         -7.41656561	         -0.84418736	        -18.66243611	         25.24422587	         26.77285857	         18.47402373	        -15.61181409	         76.40247311	         42.83295850	
          0.01000000	          0.00000000	          0.00000000	          0.00000000	          0.00000000	          0.00000000	          0.00000000	         23.46525410	         -0.54534776	         -5.60330354	          3.23927589	         -0.91470123	         -3.93783116	         -0.00295250	          0.05529782	         -0.00188730	         18.57406544	          9.11782952	         -8.38548980	         -9.28759190	          5.06084628	          0.00000000	          0.00000000	        -42.18884455	          0.00000000	          0.04200000	          0.00000000	          3.98201469	         11.39450733	        -12.26469988	         14.04876907	          7.66835686	        -16.67257538	        -15.79171807	          5.01590560	         36.23996529	         -6.96724991	        -20.34886164	         64.04160090	         16.09614224	
          0.02000000	          0.00000000	          0.00000000	          0.00000000	          0.00000000	          0.00000000	          0.00000000	        -29.40133417	          5.43649247	         -7.56589391	         -1.17153936	          1.58548409	        -19.42049736	          0.00930366	          0.04753993	         -0.00673316	          0.35771629	         -3.91044256	          8.38560480	         12.58688554	         -1.23169077	          0.00000000	          0.00000000	        -67.44972880	          0.00000000	          0.04200000	          0.00000000	         -4.32782488	         -3.39124310	        -16.20822271	          5.80028003	          0.98815809	        -13.26898575	        -15.18512926	         19.25834269	          8.48183654	         18.21958938	        -19.54629607	         81.13378214	         22.93266682	
          0.03000000	          0.00000000	          0.00000000	          0.00000000	          0.00000000	          0.00000000	          0.00000000	         23.98006316	         16.06039324	        -14.31621279	         -1.46392880	          4.58419435	        -69.64283349	         -0.00378873	          0.05328287	         -0.00262059	         -6.74349819	         -4.77407638	         28.50077506	        -10.78007810	          3.42649220	          0.00000000	          0.00000000	        -46.01141961	          0.00000000	          0.04200000	          0.00000000	         -1.72789597	         -1.47775538	        -12.45160665	          4.27725728	         -3.19317046	         16.00850342	        -20.13842542	         26.37413000	         30.07168632	        -13.03712725	        -19.22353051	         81.27747147	         52.77664822	
          0.04000000	          0.00000000	          0.00000000	          0.00000000	          0.00000000	          0.00000000	          0.00000000	          4.90418780	         -6.11315436	          4.90831857	         -1.69481737	         -1.98179633	        -32.34782603	         -0.00552044	          0.03838640	          0.00204433	         24.98276175	         -5.45605442	        -15.54350034	        -13.87078428	         -8.65626077	          0.00000000	          0.00000000	        -21.69374147	          0.00000000	          0.04200000	          0.00000000	         15.61387262	         13.78922870	        -18.86827458	         -3.33677101	          6.79972035	         -8.29549058	        -16.68879035	          7.73233014	         21.53285833	         -6.49841720	        -18.37312555	         75.64413148	         46.47899268	
          0.05000000	          0.00000000	          0.00000000	          0.00000000	          0.00000000	          0.00000000	          0.00000000	        -31.40020560	        -14.14009711	        -17.22799705	          2.02450173	          2.24855790	        -68.43005223	          0.00877992	          0.03743317	          0.00925760	         10.38599457	          5.52973812	         12.83346454	         11.65212179	         -9.42943373	          0.00000000	          0.00000000	         15.90808443	          0.00000000	          0.04200000	          0.00000000	         18.29948185	          0.13597690	        -14.09232149	         -2.47648142	          7.34779116	          0.20111516	        -18.72366360	         65.71474812	         42.58191321	         -3.45674854	        -17.99059516	         84.21999285	         33.05738684	
          0.06000000	          0.00000000	          0.00000000	          0.00000000	          0.00000000	          0.00000000	          0.00000000	        -19.11648790	         10.11754989	        -12.87681749	         -1.16105554	          2.51902270	          0.32106372	          0.00324765	          0.03228090	          0.00982427	         -2.41995819	         -3.87947639	         14.64772635	          1.77827651	        -13.60851826	          0.00000000	          0.00000000	         18.86209589	          0.00000000	          0.04200000	          0.00000000	          6.13263043	         15.29421876	        -17.90067776	          4.90548056	          5.50996307	          2.36949302	        -20.67727935	          5.26295992	         27.09866462	          0.04710023	        -16.96683150	         26.37612813	         22.36535314	
          0.07000000	          0.00000000	          0.00000000	          0.00000000	          0.00000000	          0.00000000	          0.00000000	         -0.89818263	         -4.33680686	         -9.56368597	         -4.68864619	         -3.14369221	         18.23193538	         -0.00188317	          0.04896723	         -0.00860105	          4.58171785	        -14.29895854	        -23.33742889	         -7.37908860	         -0.07399153	          0.00000000	          0.00000000	        -77.18677683	          0.00000000	          0.04200000	          0.00000000	         -0.26745173	         11.96167914	        -11.03042944	          3.49078226	         -6.08569783	         -9.86774564	        -16.52029178	          9.53565877	         20.26543863	          4.39672628	        -18.67735908	         26.37139711	         51.49106015	
